<?xml version="1.0" encoding="UTF-8"?><svg id="Layer_1" xmlns="http://www.w3.org/2000/svg" viewBox="0 0 200 200.9"><defs><style>.cls-1{fill:#e9ded6;}</style></defs><g id="logo"><path class="cls-1" d="M170.86,29.2C152.06,10.38,127.06.01,100.42,0,45.53,0,.86,44.66.83,99.54c0,17.55,4.58,34.67,13.29,49.77L0,200.9l52.79-13.84c14.54,7.93,30.92,12.11,47.59,12.12h.04s0,0,0,0c54.88,0,99.56-44.66,99.58-99.55.01-26.6-10.34-51.61-29.14-70.43ZM100.42,182.36h-.03c-14.85,0-29.42-4-42.13-11.53l-3.02-1.79-31.33,8.21,8.36-30.53-1.97-3.13c-8.28-13.17-12.66-28.4-12.65-44.03.02-45.62,37.15-82.74,82.8-82.74,22.11,0,42.89,8.63,58.52,24.27,15.63,15.64,24.23,36.43,24.22,58.54-.02,45.62-37.15,82.74-82.77,82.74ZM145.82,120.39c-2.49-1.24-14.72-7.26-17-8.09-2.28-.83-3.94-1.25-5.6,1.24-1.66,2.49-6.43,8.09-7.88,9.75-1.45,1.66-2.9,1.87-5.39.62-2.49-1.24-10.51-3.87-20.01-12.35-7.4-6.6-12.39-14.74-13.84-17.23-1.45-2.49-.15-3.84,1.09-5.08,1.12-1.11,2.49-2.91,3.73-4.36,1.24-1.45,1.66-2.49,2.49-4.15.83-1.66.41-3.11-.21-4.36-.62-1.25-5.6-13.49-7.67-18.47-2.02-4.85-4.07-4.19-5.6-4.27-1.45-.07-3.11-.09-4.77-.09s-4.35.62-6.64,3.11c-2.28,2.49-8.71,8.51-8.71,20.75s8.92,24.07,10.16,25.73c1.24,1.66,17.55,26.79,42.51,37.56,5.94,2.56,10.57,4.09,14.19,5.24,5.96,1.89,11.38,1.63,15.67.99,4.78-.71,14.72-6.02,16.8-11.83,2.07-5.81,2.07-10.79,1.45-11.83-.62-1.04-2.28-1.66-4.77-2.91Z"/></g></svg>