<?xml version="1.0" encoding="utf-8"?>
<!-- Generator: Adobe Illustrator 26.3.1, SVG Export Plug-In . SVG Version: 6.00 Build 0)  -->
<svg version="1.1" id="Layer_1" xmlns="http://www.w3.org/2000/svg" xmlns:xlink="http://www.w3.org/1999/xlink" x="0px" y="0px"
	 viewBox="0 0 100 100" style="enable-background:new 0 0 100 100;" xml:space="preserve">
<style type="text/css">
	.st0{fill:#EED8C6;}
	.st1{fill:none;}
	.st2{fill:#FFFCEB;}
	.st3{clip-path:url(#SVGID_00000004542759114158178530000013242395642406266255_);fill:#FFFCEB;}
</style>
<g>
	<defs>
		<rect id="SVGID_1_" x="4" y="4" width="92" height="92"/>
	</defs>
	<clipPath id="SVGID_00000087371062716290513010000010708872545621155211_">
		<use xlink:href="#SVGID_1_"  style="overflow:visible;"/>
	</clipPath>
	<path style="clip-path:url(#SVGID_00000087371062716290513010000010708872545621155211_);fill:#FFFCEB;" d="M31,96h38
		c14.9,0,27-11.8,27-26.3V30.3C96,15.8,83.9,4,69,4H31C16.1,4,4,15.8,4,30.3v39.4C4,84.2,16.1,96,31,96z M69,10.7
		c11.1,0,20.1,8.8,20.1,19.5v39.4c0,10.8-9,19.5-20.1,19.5H31c-11.1,0-20.1-8.8-20.1-19.5V30.3c0-10.8,9-19.5,20.1-19.5L69,10.7
		L69,10.7z"/>
	<path style="clip-path:url(#SVGID_00000087371062716290513010000010708872545621155211_);fill:#FFFCEB;" d="M50,74.3
		c13.9,0,25.1-11,25.1-24.4c0-6.6-2.8-13.1-7.7-17.7c-4.8-4.5-11-6.9-17.5-6.7c-7.8,0.2-14.3,2.8-18.8,7.4
		c-4.2,4.4-6.4,10.3-6.2,17.1c0.1,6.5,2.8,12.6,7.4,17.2C37,71.8,43.3,74.3,50,74.3z M50.6,33.7c4.1,0,7.9,1.5,10.9,4.4
		c3.3,3.1,5.1,7.4,5.1,11.8c0,8.9-7.5,16.2-16.7,16.2c-9.2,0-16.5-7.2-16.7-16.3c-0.1-4.6,1.3-8.5,3.9-11.3c2.9-3,7.3-4.7,12.8-4.8
		C50.3,33.7,50.4,33.7,50.6,33.7z"/>
	<path style="clip-path:url(#SVGID_00000087371062716290513010000010708872545621155211_);fill:#FFFCEB;" d="M24.3,30.4
		c-3.2,0-5.9-2.6-5.9-5.7c0-3.1,2.6-5.7,5.9-5.7c3.2,0,5.9,2.6,5.9,5.7C30.1,27.9,27.5,30.4,24.3,30.4z"/>
</g>
</svg>
