<?xml version="1.0" encoding="utf-8"?>
<!-- Generator: Adobe Illustrator 26.3.1, SVG Export Plug-In . SVG Version: 6.00 Build 0)  -->
<svg version="1.1" id="Layer_1" xmlns="http://www.w3.org/2000/svg" xmlns:xlink="http://www.w3.org/1999/xlink" x="0px" y="0px"
	 viewBox="0 0 100 100" style="enable-background:new 0 0 100 100;" xml:space="preserve">
<style type="text/css">
	.st0{fill:#EED8C6;}
	.st1{fill:none;}
	.st2{fill:#FFFCEB;}
	.st3{clip-path:url(#SVGID_00000127035818261258974110000003120822259627637413_);fill:#FFFCEB;}
</style>
<path class="st2" d="M50,5.8C25.6,5.8,5.8,25.6,5.8,50S25.6,94.2,50,94.2c24.4,0,44.2-19.8,44.2-44.2C94.2,25.6,74.4,5.8,50,5.8z
	 M70.3,69.6c-0.5,0.9-1.5,1.4-2.5,1.4c-0.5,0-1-0.1-1.5-0.4C48.8,60.2,28.2,66.2,28,66.3c-1.5,0.5-3.2-0.4-3.6-1.9
	c-0.5-1.5,0.4-3.2,1.9-3.6c0.9-0.3,23.3-6.9,43,4.9C70.6,66.5,71.1,68.3,70.3,69.6z M75.8,57.4c-0.6,1.1-1.8,1.7-3,1.7
	c-0.6,0-1.2-0.1-1.7-0.5c-21.9-12.6-43.9-5.3-44.2-5.2c-1.8,0.6-3.7-0.3-4.4-2.1c-0.6-1.8,0.3-3.7,2.1-4.4c1-0.3,25.2-8.4,49.8,5.7
	C76.1,53.6,76.7,55.7,75.8,57.4L75.8,57.4z M78.2,45.6c-0.7,0-1.3-0.2-2-0.5C51,31.8,25.1,39.8,24.8,39.9c-2.2,0.7-4.6-0.5-5.3-2.8
	c-0.7-2.2,0.5-4.6,2.8-5.3c1.2-0.4,29.6-9.1,57.9,5.8c2.1,1.1,2.9,3.6,1.8,5.7C81.2,44.7,79.7,45.6,78.2,45.6L78.2,45.6z"/>
</svg>
